HIERARCHY
ROOT Hips
{
	OFFSET 0.000000 0.000000 0.000000 
	CHANNELS 6 Xposition Yposition Zposition Yrotation Zrotation Xrotation 
	JOINT Lumbar
	{
		OFFSET 0.000000 0.000000 0.000000 
		CHANNELS 3 Zrotation Xrotation Yrotation
		JOINT Neck
		{
			OFFSET 0.000000 0.445665 0.000000 
			CHANNELS 3 Zrotation Xrotation Yrotation
			End Site
			{
				OFFSET 0.000000 0.227535 0.000000 
			}
		}
		JOINT RightShoulder
		{
			OFFSET 0.019635 0.377685 0.194865 
			CHANNELS 3 Zrotation Xrotation Yrotation
			JOINT RightElbow
			{
				OFFSET 0.000000 -0.243375 0.000000 
				CHANNELS 2 Zrotation Yrotation
				JOINT RightWrist
				{
					OFFSET 0.000000 -0.264825 0.000000 
					CHANNELS 2 Zrotation Xrotation
					End Site
					{
						OFFSET 0.006600 -0.176220 0.000990 
					}
				}
			}
		}
		JOINT LeftShoulder
		{
			OFFSET 0.019635 0.377685 -0.194865 
			CHANNELS 3 Zrotation Xrotation Yrotation
			JOINT LeftElbow
			{
				OFFSET 0.000000 -0.243375 0.000000 
				CHANNELS 2 Zrotation Yrotation
				JOINT LeftWrist
				{
					OFFSET 0.000000 -0.264825 0.000000 
					CHANNELS 2 Zrotation Xrotation
					End Site
					{
						OFFSET 0.006600 -0.176220 -0.000990 
					}
				}
			}
		}
	}
	JOINT RightHip
	{
		OFFSET 0.052140 -0.069960 0.075570 
		CHANNELS 3 Zrotation Xrotation Yrotation
		JOINT RightKnee
		{
			OFFSET 0.000000 -0.402270 0.000000 
			CHANNELS 1 Zrotation
			JOINT RightAnkle
			{
				OFFSET 0.000000 -0.404085 0.000000 
				CHANNELS 3 Zrotation Xrotation Yrotation
				End Site
				{
					OFFSET 0.204105 -0.089430 0.008415 
				}
			}
		}
	}
	JOINT LeftHip
	{
		OFFSET 0.052140 -0.069960 -0.075570 
		CHANNELS 3 Zrotation Xrotation Yrotation
		JOINT LeftKnee
		{
			OFFSET 0.000000 -0.402270 0.000000 
			CHANNELS 1 Zrotation
			JOINT LeftAnkle
			{
				OFFSET 0.000000 -0.404085 0.000000 
				CHANNELS 3 Zrotation Xrotation Yrotation
				End Site
				{
					OFFSET 0.204105 -0.089430 -0.008415 
				}
			}
		}
	}
}
MOTION
Frames: 20
Frame Time: 0.02
-0 0.95578 0 155.74202 0 -4.81481 8.11462 5.65673 -2.9117 -34.89732 2.54709 -0.16141 30.59904 -17.40706 6.0652 11.25152 77.21114 1.51966 -3.2644 24.35293 11.42045 -3.17056 9.14809 -79.622 -2.49443 0.76117 -6.04102 4.00371 -13.76447 -7.01865 -12.73775 -2.36602 -11.40863 -10.2626 5.36784 22.35495 0.54713 -5.73666 3.3632 8.42665
0.00023 0.95576 -0.00052 155.652 0 -4.82501 8.09949 5.57948 -2.75271 -34.60778 2.5593 -0.07503 30.26873 -17.43525 6.36102 11.39797 77.39382 1.53042 -3.32714 23.67544 11.2606 -2.56626 8.73901 -79.68641 -2.24851 0.2805 -6.16725 4.05693 -13.80473 -6.74547 -12.80354 -2.34237 -11.27085 -10.27603 5.3932 22.41379 0.5432 -5.74006 3.36587 8.45094
0.00046 0.95573 -0.00103 155.56366 0 -4.83497 8.08406 5.50225 -2.59551 -34.32004 2.57205 0.01086 29.94034 -17.46417 6.65499 11.54287 77.5771 1.54102 -3.38916 23.00379 11.10119 -1.96824 8.33352 -79.74968 -2.0048 -0.19595 -6.29253 4.10972 -13.84542 -6.47438 -12.86883 -2.31895 -11.1342 -10.28876 5.41849 22.47132 0.53877 -5.74347 3.36849 8.4751
0.0007 0.9557 -0.00154 155.47952 0 -4.84423 8.06753 5.42467 -2.44327 -34.03629 2.58639 0.09545 29.61678 -17.49505 6.94641 11.6835 77.76497 1.55102 -3.44943 22.34535 10.94251 -1.38517 7.9375 -79.80864 -1.76716 -0.66191 -6.4147 4.16146 -13.88727 -6.20961 -12.93266 -2.29641 -11.00078 -10.29916 5.44386 22.52492 0.53213 -5.74676 3.37115 8.49985
0.00091 0.95566 -0.00209 155.37115 0 -4.85743 8.05712 5.34932 -2.26395 -33.73098 2.59147 0.18671 29.26814 -17.51404 7.25366 11.84739 77.92904 1.56415 -3.51955 21.61269 10.78061 -0.71774 7.49024 -79.89001 -1.49692 -1.18543 -6.55271 4.21891 -13.9218 -5.91212 -13.00409 -2.26944 -10.85033 -10.32234 5.46893 22.6002 0.53701 -5.75049 3.37383 8.52249
0.00119 0.95565 -0.00254 155.31548 0 -4.8621 8.03359 5.26909 -2.14261 -33.47185 2.61673 0.2639 28.97256 -17.55916 7.52556 11.96148 78.14291 1.57069 -3.56837 21.04062 10.62524 -0.23291 7.15251 -79.92419 -1.2962 -1.58533 -6.65749 4.26414 -13.97259 -5.6836 -13.05947 -2.25173 -10.73597 -10.31818 5.49452 22.629 0.51766 -5.75339 3.37632 8.5489
0.00169 0.95572 -0.00271 155.39802 0 -4.84408 7.97334 5.17473 -2.18 -33.33511 2.69568 0.30201 28.82312 -17.67262 7.71717 11.94003 78.50872 1.55804 -3.56106 20.88823 10.4876 -0.22763 7.11312 -79.8214 -1.28649 -1.65396 -6.66651 4.2765 -14.06455 -5.65091 -13.0697 -2.26112 -10.72254 -10.23787 5.52303 22.53031 0.42727 -5.75313 3.37959 8.59251
0.00226 0.95581 -0.00276 155.53516 0 -4.81731 7.89983 5.07549 -2.27641 -33.24568 2.79572 0.32611 28.72707 -17.81367 7.87026 11.86806 78.92264 1.53889 -3.5318 20.90223 10.3562 -0.41097 7.18509 -79.67195 -1.34709 -1.59603 -6.64265 4.27639 -14.17372 -5.68695 -13.06387 -2.27961 -10.74534 -10.13002 5.55181 22.38452 0.31315 -5.75218 3.38247 8.63869
0.00279 0.95589 -0.00286 155.65226 0 -4.7939 7.8327 4.97876 -2.3466 -33.13787 2.88723 0.3567 28.60674 -17.94427 8.02977 11.81771 79.30553 1.52339 -3.51072 20.85529 10.22235 -0.52446 7.20866 -79.54819 -1.37622 -1.58943 -6.63656 4.28146 -14.27755 -5.68788 -13.06591 -2.29296 -10.75068 -10.03506 5.57953 22.25945 0.21238 -5.75211 3.38465 8.67937
0.00334 0.95597 -0.003 155.74941 0 -4.77293 7.76431 4.88072 -2.41359 -33.01727 2.97326 0.38633 28.4868 -18.06453 8.23551 11.77247 79.72669 1.50504 -3.49693 20.74614 10.08802 -0.57206 7.22261 -79.406 -1.40353 -1.60878 -6.61889 4.28858 -14.37084 -5.70467 -13.06553 -2.31048 -10.76006 -9.93843 5.61124 22.13691 0.10053 -5.74968 3.3904 8.73849
0.00387 0.95605 -0.00302 155.90085 0 -4.745 7.69511 4.78437 -2.50208 -32.93408 3.07701 0.41515 28.37837 -18.21475 8.33647 11.70527 80.08 1.49096 -3.46312 20.80648 9.95475 -0.80036 7.28344 -79.2905 -1.45106 -1.54418 -6.61707 4.28849 -14.49022 -5.70538 -13.0664 -2.32155 -10.76986 -9.83886 5.63465 21.99837 0.00643 -5.75199 3.38878 8.75963
0.00434 0.9561 -0.00273 156.19012 0 -4.69839 7.62892 4.69258 -2.62862 -32.9468 3.21407 0.44171 28.2917 -18.4261 8.15279 11.58433 80.23057 1.49139 -3.3762 21.29055 9.83432 -1.49236 7.44288 -79.26591 -1.53969 -1.27764 -6.67041 4.27149 -14.67634 -5.64053 -13.07427 -2.31205 -10.77031 -9.73715 5.63555 21.8238 -0.03521 -5.76773 3.36553 8.67678
0.00479 0.95614 -0.00232 156.53146 0 -4.64548 7.56186 4.60293 -2.77615 -32.99487 3.37054 0.46913 28.21425 -18.67006 7.86645 11.44433 80.31178 1.49617 -3.27058 21.94014 9.71212 -2.35725 7.6462 -79.26903 -1.6458 -0.93124 -6.73976 4.24769 -14.88774 -5.55871 -13.08383 -2.29586 -10.77051 -9.63375 5.62803 21.63575 -0.05752 -5.78826 3.33509 8.55531
0.00525 0.95619 -0.00194 156.84865 0 -4.59639 7.49403 4.51307 -2.91842 -33.02391 3.52458 0.49774 28.13048 -18.90803 7.62953 11.31628 80.42722 1.49816 -3.17548 22.51622 9.5839 -3.13635 7.83193 -79.25528 -1.74223 -0.6221 -6.80023 4.22708 -15.08906 -5.48651 -13.09314 -2.28303 -10.77157 -9.53143 5.62402 21.45561 -0.08744 -5.80648 3.30886 8.45063
0.00571 0.95624 -0.00164 157.17154 0 -4.54257 7.43118 4.41963 -3.04423 -33.06668 3.65099 0.51699 28.05728 -19.10706 7.37728 11.17143 80.53325 1.50315 -3.07065 23.0907 9.48678 -3.95417 8.01209 -79.25666 -1.84834 -0.30429 -6.86829 4.20564 -15.28747 -5.40549 -13.10055 -2.26907 -10.76965 -9.42617 5.62122 21.2648 -0.12405 -5.82517 3.27878 8.34947
0.00616 0.95628 -0.00116 157.49202 0 -4.49773 7.35725 4.33442 -3.20912 -33.08918 3.84103 0.5589 27.96393 -19.39785 7.13599 11.05918 80.64134 1.50324 -2.98246 23.70587 9.32177 -4.72789 8.21224 -79.23536 -1.93765 0.01259 -6.92228 4.18442 -15.49465 -5.34188 -13.11145 -2.25587 -10.77479 -9.32784 5.61407 21.09553 -0.14071 -5.84411 3.25484 8.2315
0.00656 0.95634 -0.0002 157.81084 0 -4.47494 7.2587 4.26966 -3.47179 -33.04243 4.18685 0.63957 27.80981 -19.90592 6.92545 11.02914 80.77582 1.48669 -2.94028 24.38981 8.99249 -5.354 8.46117 -79.13064 -1.97495 0.30816 -6.95406 4.16617 -15.74569 -5.29725 -13.14091 -2.24542 -10.7877 -9.24196 5.59572 20.97309 -0.11677 -5.86191 3.25121 8.07945
0.00695 0.95639 0.00093 158.12126 0 -4.46233 7.14792 4.21347 -3.77378 -32.9749 4.59867 0.74763 27.63583 -20.51011 6.73433 11.03516 80.91389 1.46537 -2.91642 25.10843 8.59092 -5.92558 8.72726 -79.00486 -1.99464 0.59919 -6.96685 4.14845 -15.99944 -5.27739 -13.17224 -2.23607 -10.80988 -9.16453 5.57365 20.87605 -0.07171 -5.8799 3.25377 7.9118
0.00735 0.95645 0.00198 158.42438 0 -4.44782 7.0392 4.15447 -4.06066 -32.91936 4.99024 0.8585 27.47193 -21.08884 6.55061 11.03304 81.04758 1.44774 -2.88723 25.81267 8.20718 -6.51057 8.98217 -78.89829 -2.02293 0.89124 -6.97573 4.12986 -16.2354 -5.26659 -13.19654 -2.22688 -10.83519 -9.08807 5.5539 20.77806 -0.0295 -5.89824 3.25237 7.74869
0.00769 0.95652 0.00305 158.77876 0 -4.42126 6.94568 4.09085 -4.33634 -32.85335 5.34172 0.9044 27.30198 -21.59264 6.29462 10.99529 81.19028 1.42423 -2.84476 26.51811 7.8858 -7.15038 9.25325 -78.75248 -2.04935 1.19082 -7.0405 4.113 -16.54361 -5.1661 -13.24663 -2.21487 -10.82898 -8.99139 5.53056 20.63474 -0.01416 -5.91498 3.25531 7.59275
